<svg width="64" height="64" viewBox="0 0 64 64" xmlns="http://www.w3.org/2000/svg">
    <g fill="none" fill-rule="evenodd">
        <path d="M0 0h64v64H0z"/>
        <path d="M37.56 25.98a1.98 1.98 0 1 1-3.959-.002 1.98 1.98 0 0 1 3.96.001" fill="#FFF"/>
        <path d="M40.29 55.57 11.387 53.04a3.891 3.891 0 0 1-3.54-4.215l3.645-41.662A3.89 3.89 0 0 1 15.71 3.63L44.612 6.16a3.89 3.89 0 0 1 3.54 4.212l-3.644 41.662a3.891 3.891 0 0 1-4.219 3.537" fill="#049A80"/>
        <path d="M39.306 57.6H10.294A3.891 3.891 0 0 1 6.4 53.71V11.887A3.89 3.89 0 0 1 10.294 8h29.012a3.89 3.89 0 0 1 3.894 3.888v41.821c0 2.15-1.742 3.891-3.894 3.891" fill="#00E2BC"/>
        <g fill-rule="nonzero">
            <path d="M24 41.6a1.6 1.6 0 0 1 .187 3.19L24 44.8H12.8a1.6 1.6 0 0 1-.187-3.19l.187-.01H24z" fill="#FFF"/>
            <path d="M26.844 48c1.08 0 1.956.716 1.956 1.6 0 .82-.755 1.497-1.727 1.59l-.229.01H13.156c-1.08 0-1.956-.716-1.956-1.6 0-.82.755-1.497 1.727-1.59l.229-.01h13.688zM19.2 35.2a1.6 1.6 0 0 1 .187 3.19l-.187.01h-6.4a1.6 1.6 0 0 1-.187-3.19l.187-.01h6.4z" fill="#3D2360"/>
        </g>
        <path d="M16.37 22.62v-2.04h5.274v1.557c0 1.538-.456 2.767-1.367 3.685-.912.919-2.138 1.378-3.679 1.378-1.646 0-2.958-.537-3.934-1.61-.976-1.074-1.464-2.404-1.464-3.99 0-1.586.494-2.916 1.482-3.99.988-1.073 2.305-1.61 3.952-1.61.505 0 .982.045 1.429.134.447.09.811.2 1.094.331.282.131.526.266.732.403.206.137.35.247.432.33l.141.144-1.535 2.004a3.37 3.37 0 0 0-.264-.233c-.118-.095-.38-.224-.785-.385a3.436 3.436 0 0 0-1.28-.241c-.8 0-1.458.29-1.975.868-.518.578-.777 1.327-.777 2.245 0 .918.26 1.667.777 2.245.517.579 1.176.868 1.975.868.694 0 1.227-.182 1.597-.546.37-.363.568-.838.591-1.422v-.125H16.37zM32 23.765c0 1.002-.341 1.786-1.023 2.353-.682.566-1.647.85-2.894.85h-4.992V16.232h4.922c1.223 0 2.146.256 2.77.769.623.513.935 1.234.935 2.165 0 .441-.112.853-.335 1.234-.224.382-.53.692-.918.93v.144c.482.155.859.438 1.13.85.27.411.405.891.405 1.44zm-3.793-1.253h-2.558v2.219H28.1c.33 0 .603-.107.82-.322.218-.215.327-.471.327-.77 0-.274-.097-.524-.291-.75a1.057 1.057 0 0 0-.75-.377zm.794-2.97c0-.298-.097-.551-.291-.76a.978.978 0 0 0-.75-.313h-2.311v2.111h2.258c.318 0 .58-.101.785-.304a.992.992 0 0 0 .309-.734z" fill="#3D2360"/>
        <g transform="translate(33.6 35.2)">
            <circle fill="#EB008B" cx="12.8" cy="12.8" r="12.8"/>
            <path d="M17.6 12.8H8M12.8 8v9.6" stroke="#FFF" stroke-width="2.611" stroke-linecap="round"/>
        </g>
    </g>
</svg>
