<svg width="64" height="64" viewBox="0 0 64 64" xmlns="http://www.w3.org/2000/svg">
    <g fill="none" fill-rule="evenodd">
        <path d="M0 0h64v64H0z"/>
        <g transform="translate(16 6)">
            <rect fill="#00E2BC" width="32" height="52" rx="3.8"/>
            <rect fill="#3D2360" x="3" y="3" width="26" height="43" rx="2.4"/>
            <rect fill="#3D2360" x="12" y="48" width="8" height="2" rx="1"/>
        </g>
        <path d="M22.692 28.858c-.239 2.022 1.175 4.95 5.593 5.469 2.907.34 5.89-.497 7.462-.67.446-.049.778-.015.968.132.285.226.278.508.04 1.013-.242.517.077.749.633.552 1.425-.505 4.314-3.152 3.893-6.969-.427-3.872-3.948-6.39-9.274-6.015-5.416.382-8.931 3.237-9.315 6.488" fill="#FEFEFE"/>
        <path d="M38.713 29.435c0 .594-.486 1.076-1.084 1.076h-2.285a.353.353 0 1 1 0-.704h2.285a.374.374 0 0 0 .375-.372.374.374 0 0 0-.375-.372h-1.653a1.081 1.081 0 0 1-1.084-1.076 1.08 1.08 0 0 1 1.084-1.076h2.277c.196 0 .355.157.355.351 0 .195-.159.353-.355.353h-2.277a.374.374 0 0 0-.375.372c0 .205.168.372.375.372h1.653c.598 0 1.084.483 1.084 1.076zm-4.527-2.526a.353.353 0 0 0-.355.352v2.898c0 .194.159.352.355.352a.353.353 0 0 0 .354-.352v-2.898a.352.352 0 0 0-.354-.352zm-1.988 1.798 1.206-1.197a.35.35 0 0 0 0-.498.357.357 0 0 0-.501 0l-1.207 1.198-1.207-1.198a.357.357 0 0 0-.5 0 .35.35 0 0 0 0 .497l1.206 1.198-1.207 1.197a.353.353 0 0 0 .25.601c.091 0 .182-.034.251-.103l1.207-1.197 1.207 1.197a.358.358 0 0 0 .502 0 .35.35 0 0 0 0-.498l-1.207-1.197zm-2.582 1.277a.35.35 0 0 1-.132.48.356.356 0 0 1-.484-.129l-.358-.618h-2.008l-.358.618a.356.356 0 0 1-.484.129.35.35 0 0 1-.13-.48l.454-.786.002-.003 1.213-2.093a.352.352 0 0 1 .307-.177c.127 0 .245.067.307.177l1.212 2.091.004.006.455.785zm-1.38-.971-.598-1.03-.597 1.03h1.194z" fill="#6F2B90"/>
    </g>
</svg>
