<svg width="34" height="32" viewBox="0 0 34 32" fill="none" xmlns="http://www.w3.org/2000/svg">
<path d="M25.492 21.639C25.2231 22.0561 24.8022 22.3519 24.3187 22.4635L10.0538 25.7568C9.02809 25.9936 8.00466 25.3541 7.76786 24.3284L4.93807 12.0713C4.70127 11.0456 5.34078 10.0222 6.36646 9.78536L24.3808 5.62642C25.4065 5.38963 26.4299 6.02914 26.6667 7.05481L28.5462 15.1957C28.7315 15.9982 28.5842 16.8416 28.138 17.5339L25.492 21.639Z" fill="#663F87"/>
<path d="M21.4087 16.4838C21.5981 17.3043 21.0865 18.123 20.266 18.3125L10.2374 20.6278C9.41684 20.8172 8.59809 20.3056 8.40865 19.4851L6.82226 12.6136C6.63282 11.7931 7.14443 10.9743 7.96497 10.7849L17.9936 8.46959C18.8141 8.28016 19.6329 8.79177 19.8223 9.61231L21.4087 16.4838Z" fill="#00E2BC"/>
<mask id="mask0_156_1212" style="mask-type:luminance" maskUnits="userSpaceOnUse" x="7" y="9" width="14" height="12">
<path d="M20.6807 13.3269C21.2727 15.891 19.6739 18.4496 17.1097 19.0416L13.3954 19.8991C10.8312 20.4911 8.27262 18.8923 7.68063 16.3282L7.552 15.771C6.96001 13.2068 8.5588 10.6482 11.123 10.0562L14.8373 9.19873C17.4015 8.60674 19.9601 10.2055 20.552 12.7697L20.6807 13.3269Z" fill="white"/>
</mask>
<g mask="url(#mask0_156_1212)">
<path d="M22.0361 16.8681C22.0109 17.6388 21.4702 18.2962 20.7188 18.4696L18.1689 19.0583C17.4778 19.2179 16.7515 19.0974 16.149 18.7232L15.6582 18.4184C15.3654 18.2365 15.1572 17.9455 15.0796 17.6096C14.9188 16.9128 15.3532 16.2175 16.05 16.0566L19.9537 15.1554C21.0418 14.9042 22.0726 15.752 22.0361 16.8681Z" stroke="white" stroke-width="0.5"/>
<path d="M19.846 7.51598L15.8343 8.44215C15.0788 8.61658 14.423 9.08298 14.0103 9.73943V9.73943C13.5946 10.4006 13.4597 11.2003 13.6354 11.9613L13.8529 12.9036" stroke="white" stroke-width="0.5" stroke-linecap="round" stroke-linejoin="round"/>
<path d="M22.0037 13.5811C22.1206 14.0876 21.8048 14.593 21.2983 14.7099L16.9117 15.7227C16.4052 15.8396 15.8998 15.5238 15.7829 15.0173L15.4496 13.5737C15.3327 13.0672 15.6485 12.5618 16.155 12.4449L20.5416 11.4322C21.0481 11.3152 21.5535 11.631 21.6704 12.1376L22.0037 13.5811Z" stroke="white" stroke-width="0.5"/>
<path d="M7.64356 20.1909C8.00408 20.8726 8.77814 21.2264 9.52953 21.0529L12.0794 20.4643C12.7706 20.3047 13.3705 19.878 13.748 19.2775L14.0555 18.7884C14.239 18.4966 14.2985 18.1437 14.221 17.8079C14.0601 17.1111 13.3648 16.6766 12.668 16.8375L8.76438 17.7387C7.6763 17.9899 7.12149 19.2038 7.64356 20.1909Z" stroke="white" stroke-width="0.5"/>
<path d="M5.67924 10.7863L9.69095 9.86013C10.4465 9.6857 11.2404 9.81742 11.8991 10.2265L12.3899 10.5313C12.7392 10.7483 12.9876 11.0955 13.0801 11.4962V11.4962C13.272 12.3275 12.7537 13.1571 11.9223 13.349L7.96829 14.2619" stroke="white" stroke-width="0.5"/>
<path d="M6.14798 17.2415C6.26492 17.7481 6.77033 18.0639 7.27684 17.9469L11.6634 16.9342C12.1699 16.8173 12.4858 16.3119 12.3688 15.8053L11.9927 14.1761C11.8757 13.6696 11.3703 13.3538 10.8638 13.4707L6.47724 14.4835C5.97072 14.6004 5.65491 15.1058 5.77185 15.6123L6.14798 17.2415Z" stroke="white" stroke-width="0.5"/>
</g>
</svg>
