<svg width="64" height="64" viewBox="0 0 64 64" xmlns="http://www.w3.org/2000/svg" xmlns:xlink="http://www.w3.org/1999/xlink">
    <defs>
        <path id="a" d="M0 0h60v60H0z"/>
    </defs>
    <g transform="translate(2 2)" fill="none" fill-rule="evenodd">
        <mask id="b" fill="#fff">
            <use xlink:href="#a"/>
        </mask>
        <g mask="url(#b)">
            <g transform="rotate(-15 35.279 22.756)">
                <ellipse stroke="#FFF" stroke-width="2.553" fill="#11DBB9" cx="28.063" cy="29.068" rx="25.781" ry="26.719"/>
                <ellipse stroke="#FFF" stroke-width="2.553" cx="28.485" cy="28.976" rx="14.531" ry="26.719"/>
                <path d="M5.796 14.591c4.257 4.79 12.25 7.595 22.455 7.595 9.838 0 18.4-3.06 22.817-7.57M51.496 42.302c-4.379-4.583-13.011-7.701-22.945-7.701-10.18 0-18.995 3.275-23.264 8.047" stroke="#FFF" stroke-width="2.553"/>
                <path stroke="#FFF" stroke-width="2.553" fill="#3D2360" d="M27.768 3.161v52.5"/>
                <ellipse cx="28.125" cy="29.063" rx="28.125" ry="29.063"/>
            </g>
            <g transform="rotate(20 -26.679 112.967)">
                <rect fill="#EB008B" width="21.563" height="36.563" rx="3.241"/>
                <rect fill="#3D2360" x="2.009" y="2.262" width="18.75" height="29.063" rx="1.548"/>
                <path d="M11.45 8.854a5.625 5.625 0 1 0 0 11.25 5.625 5.625 0 0 0 0-11.25z" fill="#00E2BC" fill-rule="nonzero"/>
                <path d="M11.827 14.736c.429-.37 3.068-3.505 3.498-2.403.266.684-2.4 3.264-2.902 3.803-.366.393-.796.83-1.2 1.138a.468.468 0 0 1-.055.143c-.146.25-.34.302-.56.217-.287.098-.525.05-.666-.24-.04-.082-.042-.187-.011-.308-.096-.11-.2-.235-.314-.378.046.058-.483-.58-.687-.843a11.6 11.6 0 0 1-.202-.269c-.467-.64-.65-.998-.49-1.334.142-.297.376-.311.635-.161.168.097.361.27.585.508.072.077.147.16.225.251.155.18.557.674.584.702.13.13.25.26.36.39.363-.436.81-.88 1.2-1.216z" fill="#FFF"/>
                <rect fill="#3D2360" x="8.047" y="32.987" width="3.75" height="1.875" rx=".708"/>
            </g>
        </g>
    </g>
</svg>
