<svg width="38" height="19" viewBox="0 0 38 19" fill="none" xmlns="http://www.w3.org/2000/svg">
<path d="M9.7987 18.898C13.8487 18.898 16.6027 16.252 18.9247 13.228C21.3007 16.252 24.1627 18.898 28.2127 18.898C33.7747 18.898 37.3927 14.47 37.3927 9.61C37.3927 4.048 33.0187 0.321999 28.2127 0.321999C24.2167 0.321999 21.4087 3.022 19.0867 6.046C16.6567 3.022 13.8487 0.321999 9.7987 0.321999C4.3987 0.321999 0.672695 4.75 0.672695 9.61C0.672695 14.578 4.3987 18.898 9.7987 18.898ZM27.8347 5.344C30.2107 5.344 31.9927 7.234 31.9927 9.61C31.9927 11.878 30.4267 13.876 27.8347 13.876C25.5127 13.876 23.7847 11.878 22.0027 9.502C23.6767 7.234 25.4587 5.344 27.8347 5.344ZM10.2307 13.876C7.5847 13.876 6.0727 11.824 6.0727 9.61C6.0727 7.558 7.5847 5.344 10.2307 5.344C12.4987 5.344 14.2807 7.342 16.0627 9.718C14.3347 12.04 12.5527 13.876 10.2307 13.876Z" fill="white"/>
</svg>
